# xmcd
#
# Track frame offsets:
#	150
#	57397
#	96184
#	120847
#	159649
#	182385
#
# Disc length: 2839 seconds
#
# Revision: 3
# Processed by: cddbd v1.5.2PL0 Copyright (c) Steve Scherf et al.
# Submitted via: EasyCDDAExtractor 12.0.1.1
#
DISCID=410b1506
DTITLE=Various Artist - 예배인도자컨퍼런스 2010
DYEAR=2010
DGENRE=Worship
TTITLE0=강명식 - 정결
TTITLE1=오재성 - 예수 피를 힘입어
TTITLE2=오재성 - 빛되신 주
TTITLE3=오재성 - 잊을 수 없는 은혜
TTITLE4=박성식 - 나의 사랑이
TTITLE5=이길우 - 나의 몸을 산 제사로 (Studio ver.)
EXTD=
EXTT0=
EXTT1=
EXTT2=
EXTT3=
EXTT4=
EXTT5=
PLAYORDER=
